<svg version="1.1" viewBox="0.0 0.0 316.13123359580055 253.54855643044618" fill="none" stroke="none" stroke-linecap="square" stroke-miterlimit="10" xmlns:xlink="http://www.w3.org/1999/xlink" xmlns="http://www.w3.org/2000/svg"><clipPath id="p.0"><path d="m0 0l316.13123 0l0 253.54855l-316.13123 0l0 -253.54855z" clip-rule="nonzero"/></clipPath><g clip-path="url(#p.0)"><path fill="#000000" fill-opacity="0.0" d="m0 0l316.13123 0l0 253.54855l-316.13123 0z" fill-rule="evenodd"/><path fill="#000000" fill-opacity="0.0" d="m120.76775 59.228996l57.196846 57.889763" fill-rule="evenodd"/><path stroke="#000000" stroke-width="1.0" stroke-linejoin="round" stroke-linecap="butt" d="m120.767746 59.228996l52.979828 53.621666" fill-rule="evenodd"/><path stroke="#000000" stroke-width="1.0" stroke-linecap="butt" d="m172.57263 114.01156l4.364502 2.0672836l-2.0145874 -4.389084z" fill-rule="evenodd"/><path fill="#000000" fill-opacity="0.0" d="m177.96255 117.10416l0 0c0 -9.271423 6.973068 -16.7874 15.574799 -16.7874l0 0c4.1306915 0 8.092209 1.7686615 11.013046 4.916916c2.9208527 3.1482468 4.5617523 7.41819 4.5617523 11.870483l0 0c0 9.271423 -6.973068 16.7874 -15.574799 16.7874l0 0c-8.60173 0 -15.574799 -7.515976 -15.574799 -16.7874z" fill-rule="evenodd"/><path stroke="#000000" stroke-width="1.0" stroke-linejoin="round" stroke-linecap="butt" d="m177.96255 117.10416l0 0c0 -9.271423 6.973068 -16.7874 15.574799 -16.7874l0 0c4.1306915 0 8.092209 1.7686615 11.013046 4.916916c2.9208527 3.1482468 4.5617523 7.41819 4.5617523 11.870483l0 0c0 9.271423 -6.973068 16.7874 -15.574799 16.7874l0 0c-8.60173 0 -15.574799 -7.515976 -15.574799 -16.7874z" fill-rule="evenodd"/><path fill="#000000" fill-opacity="0.0" d="m120.76775 100.66041l57.196846 16.44094" fill-rule="evenodd"/><path stroke="#000000" stroke-width="1.0" stroke-linejoin="round" stroke-linecap="butt" d="m120.767746 100.660416l51.43036 14.783386" fill-rule="evenodd"/><path stroke="#000000" stroke-width="1.0" stroke-linecap="butt" d="m171.7418 117.03126l4.817795 -0.33376312l-3.905182 -2.8411407z" fill-rule="evenodd"/><path fill="#000000" fill-opacity="0.0" d="m120.76775 142.09181l57.196846 -24.976372" fill-rule="evenodd"/><path stroke="#000000" stroke-width="1.0" stroke-linejoin="round" stroke-linecap="butt" d="m120.767746 142.09183l51.698257 -22.57528" fill-rule="evenodd"/><path stroke="#000000" stroke-width="1.0" stroke-linecap="butt" d="m173.127 121.03025l3.4978638 -3.3297806l-4.8198547 0.30236816z" fill-rule="evenodd"/><path fill="#000000" fill-opacity="0.0" d="m120.76775 183.52322l57.196846 -66.42519" fill-rule="evenodd"/><path stroke="#000000" stroke-width="1.0" stroke-linejoin="round" stroke-linecap="butt" d="m120.767746 183.52324l53.28183 -61.8785" fill-rule="evenodd"/><path stroke="#000000" stroke-width="1.0" stroke-linecap="butt" d="m175.30122 122.7225l1.7094879 -4.5166626l-4.212799 2.3611298z" fill-rule="evenodd"/><path fill="#000000" fill-opacity="0.0" d="m89.626816 59.228996l0 0c0 -9.271679 6.971138 -16.78786 15.570465 -16.78786l0 0c4.129547 0 8.089958 1.7687187 11.009987 4.917053c2.9200287 3.1483345 4.560486 7.418392 4.560486 11.870808l0 0c0 9.271683 -6.971138 16.787865 -15.570473 16.787865l0 0c-8.599327 0 -15.570465 -7.516182 -15.570465 -16.787865z" fill-rule="evenodd"/><path stroke="#000000" stroke-width="1.0" stroke-linejoin="round" stroke-linecap="butt" d="m89.626816 59.228996l0 0c0 -9.271679 6.971138 -16.78786 15.570465 -16.78786l0 0c4.129547 0 8.089958 1.7687187 11.009987 4.917053c2.9200287 3.1483345 4.560486 7.418392 4.560486 11.870808l0 0c0 9.271683 -6.971138 16.787865 -15.570473 16.787865l0 0c-8.599327 0 -15.570465 -7.516182 -15.570465 -16.787865z" fill-rule="evenodd"/><path fill="#000000" fill-opacity="0.0" d="m89.626816 100.66041l0 0c0 -9.271683 6.971138 -16.787865 15.570465 -16.787865l0 0c4.129547 0 8.089958 1.7687225 11.009987 4.917053c2.9200287 3.1483383 4.560486 7.418396 4.560486 11.870811l0 0c0 9.271683 -6.971138 16.787865 -15.570473 16.787865l0 0c-8.599327 0 -15.570465 -7.516182 -15.570465 -16.787865z" fill-rule="evenodd"/><path stroke="#000000" stroke-width="1.0" stroke-linejoin="round" stroke-linecap="butt" d="m89.626816 100.66041l0 0c0 -9.271683 6.971138 -16.787865 15.570465 -16.787865l0 0c4.129547 0 8.089958 1.7687225 11.009987 4.917053c2.9200287 3.1483383 4.560486 7.418396 4.560486 11.870811l0 0c0 9.271683 -6.971138 16.787865 -15.570473 16.787865l0 0c-8.599327 0 -15.570465 -7.516182 -15.570465 -16.787865z" fill-rule="evenodd"/><path fill="#000000" fill-opacity="0.0" d="m89.626816 142.09181l0 0c0 -9.2716675 6.971138 -16.787857 15.570465 -16.787857l0 0c4.129547 0 8.089958 1.7687149 11.009987 4.917053c2.9200287 3.1483307 4.560486 7.418396 4.560486 11.870804l0 0c0 9.271683 -6.971138 16.787872 -15.570473 16.787872l0 0c-8.599327 0 -15.570465 -7.5161896 -15.570465 -16.787872z" fill-rule="evenodd"/><path stroke="#000000" stroke-width="1.0" stroke-linejoin="round" stroke-linecap="butt" d="m89.626816 142.09181l0 0c0 -9.2716675 6.971138 -16.787857 15.570465 -16.787857l0 0c4.129547 0 8.089958 1.7687149 11.009987 4.917053c2.9200287 3.1483307 4.560486 7.418396 4.560486 11.870804l0 0c0 9.271683 -6.971138 16.787872 -15.570473 16.787872l0 0c-8.599327 0 -15.570465 -7.5161896 -15.570465 -16.787872z" fill-rule="evenodd"/><path fill="#000000" fill-opacity="0.0" d="m89.626816 183.52322l0 0c0 -9.271683 6.971138 -16.787857 15.570465 -16.787857l0 0c4.129547 0 8.089958 1.7687225 11.009987 4.917053c2.9200287 3.1483307 4.560486 7.418396 4.560486 11.870804l0 0c0 9.271683 -6.971138 16.787872 -15.570473 16.787872l0 0c-8.599327 0 -15.570465 -7.5161896 -15.570465 -16.787872z" fill-rule="evenodd"/><path stroke="#000000" stroke-width="1.0" stroke-linejoin="round" stroke-linecap="butt" d="m89.626816 183.52322l0 0c0 -9.271683 6.971138 -16.787857 15.570465 -16.787857l0 0c4.129547 0 8.089958 1.7687225 11.009987 4.917053c2.9200287 3.1483307 4.560486 7.418396 4.560486 11.870804l0 0c0 9.271683 -6.971138 16.787872 -15.570473 16.787872l0 0c-8.599327 0 -15.570465 -7.5161896 -15.570465 -16.787872z" fill-rule="evenodd"/><path fill="#000000" fill-opacity="0.0" d="m89.626816 224.95464l0 0c0 -9.271683 6.971138 -16.787857 15.570465 -16.787857l0 0c4.129547 0 8.089958 1.7687073 11.009987 4.917053c2.9200287 3.1483307 4.560486 7.4183807 4.560486 11.870804l0 0c0 9.271683 -6.971138 16.787857 -15.570473 16.787857l0 0c-8.599327 0 -15.570465 -7.5161743 -15.570465 -16.787857z" fill-rule="evenodd"/><path stroke="#000000" stroke-width="1.0" stroke-linejoin="round" stroke-linecap="butt" d="m89.626816 224.95464l0 0c0 -9.271683 6.971138 -16.787857 15.570465 -16.787857l0 0c4.129547 0 8.089958 1.7687073 11.009987 4.917053c2.9200287 3.1483307 4.560486 7.4183807 4.560486 11.870804l0 0c0 9.271683 -6.971138 16.787857 -15.570473 16.787857l0 0c-8.599327 0 -15.570465 -7.5161743 -15.570465 -16.787857z" fill-rule="evenodd"/><path fill="#000000" fill-opacity="0.0" d="m89.621346 18.728828l0 0c0 -9.271427 6.973076 -16.787403 15.574806 -16.787403l0 0c4.1306915 0 8.092201 1.7686675 11.013046 4.916916c2.920845 3.1482487 4.5617523 7.41819 4.5617523 11.870486l0 0c0 9.271425 -6.973076 16.7874 -15.574799 16.7874l0 0c-8.60173 0 -15.574806 -7.515974 -15.574806 -16.7874z" fill-rule="evenodd"/><path stroke="#000000" stroke-width="1.0" stroke-linejoin="round" stroke-linecap="butt" d="m89.621346 18.728828l0 0c0 -9.271427 6.973076 -16.787403 15.574806 -16.787403l0 0c4.1306915 0 8.092201 1.7686675 11.013046 4.916916c2.920845 3.1482487 4.5617523 7.41819 4.5617523 11.870486l0 0c0 9.271425 -6.973076 16.7874 -15.574799 16.7874l0 0c-8.60173 0 -15.574806 -7.515974 -15.574806 -16.7874z" fill-rule="evenodd"/><path fill="#000000" fill-opacity="0.0" d="m120.77095 18.728828l57.196854 98.362206" fill-rule="evenodd"/><path stroke="#000000" stroke-width="1.0" stroke-linejoin="round" stroke-linecap="butt" d="m120.77096 18.728827l54.180748 93.175385" fill-rule="evenodd"/><path stroke="#000000" stroke-width="1.0" stroke-linecap="butt" d="m173.52383 112.734505l3.7091064 3.0927582l-0.85336304 -4.7533493z" fill-rule="evenodd"/><path fill="#000000" fill-opacity="0.0" d="m0 99.22835l66.14173 0l0 45.228348l-66.14173 0z" fill-rule="evenodd"/><path fill="#000000" d="m16.150944 108.44064q0 0.5625 -0.09375 1.0625q-0.078125 0.5 -0.265625 0.9375q-0.1875 0.4375 -0.484375 0.796875q-0.296875 0.34375 -0.734375 0.59375q-0.4375 0.25 -1.015625 0.390625q-0.5625 0.140625 -1.296875 0.140625l-1.640625 0l0 -7.65625l1.96875 0q1.796875 0 2.671875 0.921875q0.890625 0.921875 0.890625 2.8125zm-1.09375 0.078125q0 -0.8125 -0.15625 -1.375q-0.15625 -0.5625 -0.46875 -0.90625q-0.296875 -0.34375 -0.765625 -0.5q-0.46875 -0.15625 -1.109375 -0.15625l-0.890625 0l0 5.875l0.78125 0q2.609375 0 2.609375 -2.9375zm4.4570312 -1.203125l-1.734375 0l0 -0.84375l2.765625 0l0 5.046875l1.75 0l0 0.84375l-4.703125 0l0 -0.84375l1.921875 0l0 -4.203125zm2.640625 -3.234375l-1.875 1.421875l-1.015625 0l1.421875 -1.421875l1.46875 0zm-5.578125 2.390625l0 0zm11.769531 0.84375q0.171875 0.203125 0.25 0.484375q0.09375 0.265625 0.09375 0.578125q0 0.453125 -0.171875 0.84375q-0.15625 0.375 -0.46875 0.640625q-0.296875 0.265625 -0.71875 0.421875q-0.421875 0.140625 -0.9375 0.140625q-0.375 0 -0.703125 -0.078125q-0.3125 -0.078125 -0.5 -0.1875q-0.109375 0.15625 -0.1875 0.3125q-0.078125 0.140625 -0.078125 0.3125q0 0.234375 0.21875 0.375q0.21875 0.140625 0.5625 0.15625l1.546875 0.0625q0.4375 0.015625 0.8125 0.109375q0.375 0.09375 0.640625 0.28125q0.265625 0.1875 0.40625 0.46875q0.15625 0.28125 0.15625 0.640625q0 0.390625 -0.171875 0.734375q-0.171875 0.359375 -0.53125 0.625q-0.34375 0.265625 -0.890625 0.421875q-0.546875 0.171875 -1.296875 0.171875q-0.71875 0 -1.21875 -0.125q-0.5 -0.109375 -0.828125 -0.3125q-0.3125 -0.203125 -0.46875 -0.484375q-0.140625 -0.28125 -0.140625 -0.609375q0 -0.421875 0.203125 -0.75q0.203125 -0.328125 0.609375 -0.625q-0.140625 -0.0625 -0.265625 -0.171875q-0.109375 -0.109375 -0.1875 -0.234375q-0.0625 -0.125 -0.09375 -0.265625q-0.03125 -0.140625 -0.03125 -0.28125q0 -0.375 0.171875 -0.6875q0.1875 -0.3125 0.4375 -0.59375q-0.125 -0.140625 -0.203125 -0.265625q-0.078125 -0.140625 -0.140625 -0.28125q-0.0625 -0.15625 -0.09375 -0.328125q-0.03125 -0.171875 -0.03125 -0.390625q0 -0.453125 0.15625 -0.828125q0.171875 -0.390625 0.46875 -0.65625q0.3125 -0.265625 0.734375 -0.40625q0.421875 -0.15625 0.9375 -0.15625q0.21875 0 0.40625 0.03125q0.203125 0.015625 0.359375 0.0625l2.140625 0l0 0.84375l-0.953125 0zm-3.53125 5.890625q0 0.421875 0.421875 0.609375q0.4375 0.1875 1.21875 0.1875q0.484375 0 0.8125 -0.09375q0.328125 -0.078125 0.53125 -0.21875q0.203125 -0.140625 0.28125 -0.328125q0.09375 -0.1875 0.09375 -0.375q0 -0.359375 -0.296875 -0.53125q-0.28125 -0.171875 -0.890625 -0.203125l-1.53125 -0.046875q-0.1875 0.125 -0.328125 0.25q-0.125 0.125 -0.203125 0.25q-0.0625 0.125 -0.09375 0.25q-0.015625 0.125 -0.015625 0.25zm0.3125 -4.8125q0 0.28125 0.09375 0.515625q0.09375 0.234375 0.25 0.40625q0.171875 0.15625 0.40625 0.25q0.234375 0.09375 0.515625 0.09375q0.296875 0 0.53125 -0.09375q0.25 -0.109375 0.40625 -0.28125q0.15625 -0.1875 0.234375 -0.40625q0.09375 -0.234375 0.09375 -0.484375q0 -0.28125 -0.09375 -0.515625q-0.09375 -0.234375 -0.265625 -0.390625q-0.15625 -0.171875 -0.390625 -0.25q-0.234375 -0.09375 -0.515625 -0.09375q-0.3125 0 -0.546875 0.109375q-0.234375 0.09375 -0.40625 0.265625q-0.15625 0.171875 -0.234375 0.40625q-0.078125 0.234375 -0.078125 0.46875zm7.5820312 -1.078125l-1.734375 0l0 -0.84375l2.765625 0l0 5.046875l1.75 0l0 0.84375l-4.703125 0l0 -0.84375l1.921875 0l0 -4.203125zm0.359375 -3.296875q0.171875 0 0.3125 0.0625q0.15625 0.046875 0.265625 0.171875q0.109375 0.109375 0.171875 0.25q0.0625 0.140625 0.0625 0.3125q0 0.15625 -0.0625 0.3125q-0.0625 0.140625 -0.171875 0.25q-0.109375 0.109375 -0.265625 0.171875q-0.140625 0.0625 -0.3125 0.0625q-0.171875 0 -0.3125 -0.0625q-0.140625 -0.0625 -0.25 -0.171875q-0.109375 -0.109375 -0.171875 -0.25q-0.0625 -0.15625 -0.0625 -0.3125q0 -0.171875 0.0625 -0.3125q0.0625 -0.140625 0.171875 -0.25q0.109375 -0.125 0.25 -0.171875q0.140625 -0.0625 0.3125 -0.0625zm8.972656 8.265625q-0.34375 0.078125 -0.71875 0.109375q-0.359375 0.046875 -0.734375 0.046875q-1.109375 0 -1.65625 -0.5q-0.546875 -0.5 -0.546875 -1.53125l0 -3.078125l-1.640625 0l0 -0.859375l1.640625 0l0 -1.609375l1.015625 -0.265625l0 1.875l2.640625 0l0 0.859375l-2.640625 0l0 2.984375q0 0.640625 0.328125 0.953125q0.34375 0.3125 1.0 0.3125q0.28125 0 0.609375 -0.046875q0.34375 -0.046875 0.703125 -0.140625l0 0.890625zm6.9882812 -2.90625q0 0.6875 -0.203125 1.265625q-0.1875 0.5625 -0.546875 0.96875q-0.359375 0.40625 -0.890625 0.640625q-0.515625 0.21875 -1.1875 0.21875q-0.625 0 -1.125 -0.1875q-0.5 -0.203125 -0.859375 -0.578125q-0.34375 -0.390625 -0.53125 -0.953125q-0.171875 -0.5625 -0.171875 -1.296875q0 -0.6875 0.1875 -1.25q0.1875 -0.5625 0.546875 -0.96875q0.375 -0.40625 0.890625 -0.625q0.53125 -0.234375 1.1875 -0.234375q0.625 0 1.125 0.203125q0.515625 0.1875 0.859375 0.5625q0.34375 0.375 0.53125 0.9375q0.1875 0.5625 0.1875 1.296875zm-1.046875 0.046875q0 -0.546875 -0.125 -0.953125q-0.109375 -0.40625 -0.34375 -0.671875q-0.21875 -0.28125 -0.546875 -0.421875q-0.3125 -0.140625 -0.703125 -0.140625q-0.453125 0 -0.78125 0.1875q-0.328125 0.171875 -0.53125 0.46875q-0.203125 0.296875 -0.3125 0.703125q-0.09375 0.390625 -0.09375 0.828125q0 0.546875 0.125 0.953125q0.125 0.40625 0.34375 0.6875q0.21875 0.265625 0.53125 0.40625q0.328125 0.140625 0.71875 0.140625q0.453125 0 0.78125 -0.171875q0.328125 -0.1875 0.53125 -0.484375q0.21875 -0.3125 0.3125 -0.703125q0.09375 -0.390625 0.09375 -0.828125zm7.1757812 1.328125q0 0.3125 -0.109375 0.5625q-0.09375 0.25 -0.28125 0.4375q-0.1875 0.1875 -0.421875 0.328125q-0.234375 0.125 -0.515625 0.21875q-0.265625 0.09375 -0.5625 0.125q-0.28125 0.046875 -0.5625 0.046875q-0.59375 0 -1.09375 -0.0625q-0.5 -0.046875 -0.984375 -0.171875l0 -0.9375q0.515625 0.15625 1.03125 0.234375q0.515625 0.078125 1.015625 0.078125q0.734375 0 1.078125 -0.203125q0.359375 -0.203125 0.359375 -0.578125q0 -0.15625 -0.0625 -0.28125q-0.046875 -0.125 -0.203125 -0.234375q-0.140625 -0.109375 -0.453125 -0.234375q-0.3125 -0.125 -0.84375 -0.28125q-0.390625 -0.125 -0.734375 -0.265625q-0.328125 -0.15625 -0.578125 -0.359375q-0.25 -0.203125 -0.390625 -0.46875q-0.140625 -0.28125 -0.140625 -0.65625q0 -0.25 0.109375 -0.546875q0.125 -0.296875 0.390625 -0.546875q0.28125 -0.25 0.75 -0.40625q0.46875 -0.171875 1.171875 -0.171875q0.34375 0 0.765625 0.046875q0.421875 0.03125 0.875 0.125l0 0.90625q-0.46875 -0.125 -0.90625 -0.171875q-0.421875 -0.0625 -0.75 -0.0625q-0.375 0 -0.640625 0.0625q-0.25 0.0625 -0.421875 0.171875q-0.15625 0.09375 -0.234375 0.234375q-0.0625 0.125 -0.0625 0.28125q0 0.171875 0.0625 0.296875q0.0625 0.125 0.21875 0.25q0.171875 0.109375 0.46875 0.234375q0.296875 0.125 0.78125 0.265625q0.53125 0.15625 0.875 0.328125q0.359375 0.15625 0.578125 0.359375q0.234375 0.203125 0.328125 0.46875q0.09375 0.25 0.09375 0.578125z" fill-rule="nonzero"/><path fill="#000000" d="m27.113834 123.55002q0 -0.75 0.203125 -1.328125q0.203125 -0.59375 0.578125 -0.984375q0.390625 -0.40625 0.90625 -0.609375q0.53125 -0.21875 1.1875 -0.21875q0.28125 0 0.546875 0.03125q0.28125 0.03125 0.546875 0.109375l0 -2.46875l1.015625 0l0 8.28125l-0.90625 0l-0.03125 -1.109375q-0.4375 0.609375 -0.9375 0.921875q-0.484375 0.296875 -1.078125 0.296875q-0.5 0 -0.890625 -0.203125q-0.375 -0.21875 -0.640625 -0.59375q-0.25 -0.390625 -0.375 -0.921875q-0.125 -0.546875 -0.125 -1.203125zm1.046875 -0.078125q0 1.078125 0.3125 1.609375q0.3125 0.515625 0.890625 0.515625q0.375 0 0.796875 -0.34375q0.4375 -0.34375 0.921875 -1.03125l0 -2.734375q-0.25 -0.109375 -0.5625 -0.171875q-0.296875 -0.0625 -0.59375 -0.0625q-0.84375 0 -1.3125 0.546875q-0.453125 0.53125 -0.453125 1.671875zm10.972656 -0.09375q0 0.6875 -0.203125 1.265625q-0.1875 0.5625 -0.546875 0.96875q-0.359375 0.40625 -0.890625 0.640625q-0.515625 0.21875 -1.1875 0.21875q-0.625 0 -1.125 -0.1875q-0.5 -0.203125 -0.859375 -0.578125q-0.34375 -0.390625 -0.53125 -0.953125q-0.171875 -0.5625 -0.171875 -1.296875q0 -0.6875 0.1875 -1.25q0.1875 -0.5625 0.546875 -0.96875q0.375 -0.40625 0.890625 -0.625q0.53125 -0.234375 1.1875 -0.234375q0.625 0 1.125 0.203125q0.515625 0.1875 0.859375 0.5625q0.34375 0.375 0.53125 0.9375q0.1875 0.5625 0.1875 1.296875zm-1.046875 0.046875q0 -0.546875 -0.125 -0.953125q-0.109375 -0.40625 -0.34375 -0.671875q-0.21875 -0.28125 -0.546875 -0.421875q-0.3125 -0.140625 -0.703125 -0.140625q-0.453125 0 -0.78125 0.1875q-0.328125 0.171875 -0.53125 0.46875q-0.203125 0.296875 -0.3125 0.703125q-0.09375 0.390625 -0.09375 0.828125q0 0.546875 0.125 0.953125q0.125 0.40625 0.34375 0.6875q0.21875 0.265625 0.53125 0.40625q0.328125 0.140625 0.71875 0.140625q0.453125 0 0.78125 -0.171875q0.328125 -0.1875 0.53125 -0.484375q0.21875 -0.3125 0.3125 -0.703125q0.09375 -0.390625 0.09375 -0.828125z" fill-rule="nonzero"/><path fill="#000000" d="m32.62946 140.36252l-1.171875 0l-1.140625 -2.453125q-0.140625 -0.28125 -0.28125 -0.453125q-0.125 -0.1875 -0.28125 -0.296875q-0.15625 -0.109375 -0.34375 -0.15625q-0.171875 -0.046875 -0.40625 -0.046875l-0.484375 0l0 3.40625l-1.046875 0l0 -7.65625l2.046875 0q0.671875 0 1.140625 0.15625q0.484375 0.140625 0.796875 0.40625q0.3125 0.25 0.453125 0.625q0.140625 0.375 0.140625 0.828125q0 0.359375 -0.109375 0.6875q-0.09375 0.3125 -0.3125 0.578125q-0.203125 0.25 -0.515625 0.4375q-0.296875 0.1875 -0.703125 0.28125q0.328125 0.109375 0.546875 0.390625q0.234375 0.28125 0.46875 0.75l1.203125 2.515625zm-1.671875 -5.5625q0 -0.609375 -0.390625 -0.90625q-0.375 -0.3125 -1.0625 -0.3125l-0.984375 0l0 2.53125l0.84375 0q0.359375 0 0.65625 -0.078125q0.296875 -0.09375 0.5 -0.25q0.21875 -0.171875 0.328125 -0.40625q0.109375 -0.25 0.109375 -0.578125zm8.660156 5.5625l-1.140625 0l-0.53125 -1.671875l-3.1875 0l-0.546875 1.671875l-1.078125 0l2.546875 -7.65625l1.421875 0l2.515625 7.65625zm-1.96875 -2.609375l-1.296875 -4.09375l-1.296875 4.09375l2.59375 0z" fill-rule="nonzero"/><path fill="#000000" fill-opacity="0.0" d="m89.821526 237.68504c-9.080086 0 -16.440948 -9.8880005 -16.440948 -22.08545l0 -71.08778c0 -12.197449 -7.3608627 -22.085442 -16.440945 -22.085442l0 0c9.080082 0 16.440945 -9.887993 16.440945 -22.08545l0 -72.25547l0 0c0 -12.197456 7.3608627 -22.08545 16.440948 -22.08545z" fill-rule="evenodd"/><path fill="#000000" fill-opacity="0.0" d="m89.821526 237.68504c-9.080086 0 -16.440948 -9.8880005 -16.440948 -22.08545l0 -71.08778c0 -12.197449 -7.3608627 -22.085442 -16.440945 -22.085442l0 0c9.080082 0 16.440945 -9.887993 16.440945 -22.08545l0 -72.25547l0 0c0 -12.197456 7.3608627 -22.08545 16.440948 -22.08545" fill-rule="evenodd"/><path stroke="#000000" stroke-width="1.0" stroke-linejoin="round" stroke-linecap="butt" d="m89.821526 237.68504c-9.080086 0 -16.440948 -9.8880005 -16.440948 -22.08545l0 -71.08778c0 -12.197449 -7.3608627 -22.085442 -16.440945 -22.085442l0 0c9.080082 0 16.440945 -9.887993 16.440945 -22.08545l0 -72.25547l0 0c0 -12.197456 7.3608627 -22.08545 16.440948 -22.08545" fill-rule="evenodd"/><path fill="#000000" fill-opacity="0.0" d="m120.76775 224.95464l57.196846 -107.842514" fill-rule="evenodd"/><path stroke="#000000" stroke-width="1.0" stroke-linejoin="round" stroke-linecap="butt" d="m120.767746 224.95464l54.385544 -102.54189" fill-rule="evenodd"/><path stroke="#000000" stroke-width="1.0" stroke-linecap="butt" d="m176.6125 123.18666l0.6671295 -4.783043l-3.5855408 3.235199z" fill-rule="evenodd"/><path fill="#000000" fill-opacity="0.0" d="m107.267715 30.532808l34.771652 0l0 14.141733l-34.771652 0z" fill-rule="evenodd"/><path fill="#000000" d="m124.46656 36.124924l-0.765625 5.21875l-1.09375 0l-0.75 -2.1875l-0.15625 -0.53125l-0.171875 0.5625l-0.71875 2.15625l-1.0625 0l-0.765625 -5.21875l0.890625 0l0.4375 3.546875l0.09375 0.78125l0.21875 -0.6875l0.765625 -2.34375l0.640625 0l0.828125 2.3125l0.234375 0.6875l0.078125 -0.734375l0.40625 -3.5625l0.890625 0zm5.374489 5.21875l-4.2656326 0l0 -0.84375l1.75 0l0 -4.96875l-1.640625 0.890625l-0.328125 -0.765625l2.15625 -1.140625l0.8125076 0l0 5.984375l1.515625 0l0 0.84375z" fill-rule="nonzero"/><path fill="#000000" fill-opacity="0.0" d="m111.87139 73.82415l34.77166 0l0 14.141731l-34.77166 0z" fill-rule="evenodd"/><path fill="#000000" d="m129.07024 79.41626l-0.765625 5.21875l-1.09375 0l-0.75 -2.1875l-0.15625 -0.53125l-0.171875 0.5625l-0.71875 2.15625l-1.0625 0l-0.765625 -5.21875l0.890625 0l0.4375 3.546875l0.09375 0.78125l0.21875 -0.6875l0.765625 -2.34375l0.640625 0l0.828125 2.3125l0.234375 0.6875l0.078125 -0.734375l0.40625 -3.5625l0.890625 0zm5.436981 5.21875l-4.484375 0l0 -0.8125l1.765625 -1.75q0.421875 -0.421875 0.6875 -0.734375q0.28125 -0.3125 0.421875 -0.5625q0.15625 -0.265625 0.203125 -0.484375q0.0625 -0.234375 0.0625 -0.5q0 -0.25 -0.078125 -0.46875q-0.0625 -0.234375 -0.203125 -0.40625q-0.140625 -0.171875 -0.375 -0.265625q-0.21875 -0.109375 -0.53125 -0.109375q-0.421875 0 -0.78125 0.203125q-0.34375 0.1875 -0.640625 0.484375l-0.5 -0.59375q0.375 -0.40625 0.875 -0.640625q0.515625 -0.25 1.171875 -0.25q0.453125 0 0.828125 0.140625q0.375 0.125 0.640625 0.390625q0.265625 0.25 0.40625 0.625q0.15625 0.359375 0.15625 0.828125q0 0.390625 -0.109375 0.71875q-0.09375 0.328125 -0.3125 0.671875q-0.203125 0.328125 -0.53125 0.6875q-0.3125 0.34375 -0.75 0.765625l-1.234375 1.203125l3.3125 0l0 0.859375z" fill-rule="nonzero"/><path fill="#000000" fill-opacity="0.0" d="m115.35433 104.568245l34.77166 0l0 14.141731l-34.77166 0z" fill-rule="evenodd"/><path fill="#000000" d="m132.55318 110.160355l-0.765625 5.21875l-1.09375 0l-0.75 -2.1875l-0.15625 -0.53125l-0.171875 0.5625l-0.71875 2.15625l-1.0625 0l-0.765625 -5.21875l0.890625 0l0.4375 3.546875l0.09375 0.78125l0.21875 -0.6875l0.765625 -2.34375l0.640625 0l0.828125 2.3125l0.234375 0.6875l0.078125 -0.734375l0.40625 -3.5625l0.890625 0zm5.296356 3.15625q0 0.4375 -0.1875 0.84375q-0.171875 0.390625 -0.546875 0.6875q-0.359375 0.28125 -0.90625 0.453125q-0.546875 0.171875 -1.28125 0.171875q-0.40625 0 -0.734375 -0.03125q-0.3125 -0.015625 -0.59375 -0.0625l0 -0.8125q0.3125 0.0625 0.671875 0.09375q0.359375 0.03125 0.734375 0.03125q0.515625 0 0.875 -0.09375q0.359375 -0.09375 0.578125 -0.265625q0.234375 -0.171875 0.34375 -0.40625q0.109375 -0.25 0.109375 -0.5625q0 -0.28125 -0.125 -0.484375q-0.125 -0.203125 -0.359375 -0.34375q-0.21875 -0.140625 -0.546875 -0.203125q-0.3125 -0.078125 -0.671875 -0.078125l-0.78125 0l0 -0.75l0.78125 0q0.3125 0 0.5625 -0.078125q0.25 -0.078125 0.421875 -0.234375q0.1875 -0.15625 0.28125 -0.375q0.09375 -0.21875 0.09375 -0.5q0 -0.546875 -0.328125 -0.796875q-0.328125 -0.25 -0.96875 -0.25q-0.34375 0 -0.71875 0.078125q-0.359375 0.0625 -0.78125 0.1875l0 -0.78125q0.1875 -0.0625 0.375 -0.109375q0.203125 -0.0625 0.40625 -0.09375q0.203125 -0.03125 0.390625 -0.046875q0.203125 -0.015625 0.390625 -0.015625q0.53125 0 0.9375 0.125q0.421875 0.109375 0.6875 0.328125q0.28125 0.21875 0.421875 0.53125q0.140625 0.3125 0.140625 0.703125q0 0.578125 -0.296875 0.984375q-0.296875 0.390625 -0.8125 0.625q0.265625 0.03125 0.515625 0.15625q0.265625 0.125 0.46875 0.328125q0.203125 0.1875 0.328125 0.453125q0.125 0.265625 0.125 0.59375z" fill-rule="nonzero"/><path fill="#000000" fill-opacity="0.0" d="m115.35433 140.64961l34.77166 0l0 14.141724l-34.77166 0z" fill-rule="evenodd"/><path fill="#000000" d="m132.55318 146.24173l-0.765625 5.21875l-1.09375 0l-0.75 -2.1875l-0.15625 -0.53125l-0.171875 0.5625l-0.71875 2.15625l-1.0625 0l-0.765625 -5.21875l0.890625 0l0.4375 3.546875l0.09375 0.78125l0.21875 -0.6875l0.765625 -2.34375l0.640625 0l0.828125 2.3125l0.234375 0.6875l0.078125 -0.734375l0.40625 -3.5625l0.890625 0zm5.765106 3.71875l-1.15625 0l0 1.5l-0.921875 0l0 -1.5l-3.28125 0l0 -0.796875l2.90625 -4.5l1.296875 0l0 4.5l1.15625 0l0 0.796875zm-2.078125 -4.421875l-2.375 3.625l2.375 0l0 -3.625z" fill-rule="nonzero"/><path fill="#000000" fill-opacity="0.0" d="m115.35433 176.72966l34.77166 0l0 14.141724l-34.77166 0z" fill-rule="evenodd"/><path fill="#000000" d="m132.55318 182.32178l-0.765625 5.21875l-1.09375 0l-0.75 -2.1875l-0.15625 -0.53125l-0.171875 0.5625l-0.71875 2.15625l-1.0625 0l-0.765625 -5.21875l0.890625 0l0.4375 3.546875l0.09375 0.78125l0.21875 -0.6875l0.765625 -2.34375l0.640625 0l0.828125 2.3125l0.234375 0.6875l0.078125 -0.734375l0.40625 -3.5625l0.890625 0zm5.265106 3.046875q0 0.5 -0.21875 0.921875q-0.21875 0.40625 -0.609375 0.71875q-0.375 0.296875 -0.90625 0.46875q-0.515625 0.15625 -1.109375 0.15625q-0.15625 0 -0.328125 -0.015625q-0.171875 0 -0.34375 -0.015625q-0.171875 -0.015625 -0.34375 -0.03125q-0.15625 -0.015625 -0.296875 -0.03125l0 -0.828125q0.28125 0.078125 0.640625 0.109375q0.375 0.03125 0.734375 0.03125q0.421875 0 0.75 -0.09375q0.328125 -0.109375 0.5625 -0.296875q0.234375 -0.1875 0.359375 -0.4375q0.125 -0.265625 0.125 -0.59375q0 -0.640625 -0.453125 -0.921875q-0.453125 -0.296875 -1.296875 -0.296875l-1.296875 0l0 -3.46875l3.65625 0l0 0.78125l-2.796875 0l0 1.921875l0.59375 0q0.484375 0 0.9375 0.09375q0.46875 0.078125 0.828125 0.296875q0.359375 0.21875 0.578125 0.59375q0.234375 0.375 0.234375 0.9375z" fill-rule="nonzero"/><path fill="#000000" fill-opacity="0.0" d="m115.35433 214.5328l34.77166 0l0 14.141739l-34.77166 0z" fill-rule="evenodd"/><path fill="#000000" d="m132.55318 220.12492l-0.765625 5.21875l-1.09375 0l-0.75 -2.1875l-0.15625 -0.53125l-0.171875 0.5625l-0.71875 2.15625l-1.0625 0l-0.765625 -5.21875l0.890625 0l0.4375 3.546875l0.09375 0.78125l0.21875 -0.6875l0.765625 -2.34375l0.640625 0l0.828125 2.3125l0.234375 0.6875l0.078125 -0.734375l0.40625 -3.5625l0.890625 0zm5.515106 3.0625q0 0.46875 -0.171875 0.890625q-0.171875 0.40625 -0.484375 0.71875q-0.3125 0.296875 -0.75 0.46875q-0.4375 0.171875 -0.96875 0.171875q-0.5625 0 -1.0 -0.171875q-0.421875 -0.1875 -0.71875 -0.5625q-0.296875 -0.375 -0.453125 -0.9375q-0.140625 -0.5625 -0.140625 -1.34375q0 -0.515625 0.0625 -1.0q0.078125 -0.5 0.234375 -0.921875q0.15625 -0.4375 0.40625 -0.796875q0.265625 -0.359375 0.65625 -0.609375q0.390625 -0.265625 0.90625 -0.40625q0.53125 -0.140625 1.21875 -0.140625l0.671875 0l0 0.78125l-0.734375 0q-0.609375 0 -1.0625 0.15625q-0.4375 0.140625 -0.734375 0.40625q-0.296875 0.265625 -0.46875 0.640625q-0.15625 0.375 -0.203125 0.84375l-0.015625 0.203125q0.328125 -0.1875 0.75 -0.296875q0.4375 -0.125 0.9375 -0.125q0.515625 0 0.890625 0.15625q0.390625 0.140625 0.640625 0.421875q0.265625 0.265625 0.390625 0.640625q0.140625 0.359375 0.140625 0.8125zm-0.953125 0.0625q0 -0.3125 -0.078125 -0.5625q-0.0625 -0.25 -0.234375 -0.421875q-0.15625 -0.1875 -0.40625 -0.28125q-0.25 -0.09375 -0.59375 -0.09375q-0.1875 0 -0.390625 0.046875q-0.203125 0.03125 -0.40625 0.09375q-0.1875 0.0625 -0.375 0.15625q-0.171875 0.078125 -0.3125 0.171875q0 0.65625 0.09375 1.109375q0.09375 0.453125 0.28125 0.734375q0.1875 0.265625 0.453125 0.375q0.265625 0.109375 0.625 0.109375q0.296875 0 0.53125 -0.09375q0.25 -0.09375 0.421875 -0.28125q0.1875 -0.1875 0.28125 -0.453125q0.109375 -0.265625 0.109375 -0.609375z" fill-rule="nonzero"/><path fill="#000000" fill-opacity="0.0" d="m158.27296 63.041996l34.771652 0l0 14.141727l-34.771652 0z" fill-rule="evenodd"/><path fill="#000000" d="m178.02625 71.149734q0 0.640625 -0.1875 1.15625q-0.171875 0.515625 -0.5 0.875q-0.328125 0.359375 -0.8125 0.546875q-0.46875 0.1875 -1.0625 0.1875q-0.453125 0 -0.9375 -0.078125q-0.484375 -0.09375 -0.96875 -0.296875l0 -7.046875l0.90625 0l0 2.03125l-0.03125 0.96875q0.390625 -0.53125 0.828125 -0.734375q0.4375 -0.21875 0.953125 -0.21875q0.453125 0 0.78125 0.1875q0.34375 0.1875 0.5625 0.53125q0.234375 0.328125 0.34375 0.8125q0.125 0.484375 0.125 1.078125zm-0.921875 0.03125q0 -0.40625 -0.0625 -0.75q-0.0625 -0.34375 -0.203125 -0.578125q-0.125 -0.25 -0.328125 -0.390625q-0.203125 -0.140625 -0.484375 -0.140625q-0.171875 0 -0.34375 0.0625q-0.171875 0.046875 -0.359375 0.1875q-0.1875 0.125 -0.40625 0.34375q-0.203125 0.203125 -0.453125 0.515625l0 2.53125q0.265625 0.09375 0.546875 0.15625q0.28125 0.0625 0.515625 0.0625q0.3125 0 0.59375 -0.09375q0.296875 -0.109375 0.5 -0.328125q0.21875 -0.234375 0.34375 -0.609375q0.140625 -0.390625 0.140625 -0.96875z" fill-rule="nonzero"/><path fill="#000000" fill-opacity="0.0" d="m175.6588 77.18372l2.2992096 39.905518" fill-rule="evenodd"/><path stroke="#000000" stroke-width="1.0" stroke-linejoin="round" stroke-linecap="butt" d="m175.6588 77.18372l1.9540863 33.91545" fill-rule="evenodd"/><path stroke="#000000" stroke-width="1.0" stroke-linecap="butt" d="m175.96388 111.19418l1.9100342 4.4355774l1.3879547 -4.625595z" fill-rule="evenodd"/><path fill="#000000" fill-opacity="0.0" d="m209.11215 117.10416l44.03151 -0.03149414" fill-rule="evenodd"/><path stroke="#000000" stroke-width="1.0" stroke-linejoin="round" stroke-linecap="butt" d="m209.11217 117.10416l38.031494 -0.027198792" fill-rule="evenodd"/><path stroke="#000000" stroke-width="1.0" stroke-linecap="butt" d="m247.14484 118.72868l4.5369263 -1.6549759l-4.539276 -1.6484909z" fill-rule="evenodd"/><path fill="#000000" fill-opacity="0.0" d="m212.84251 52.354332l34.771652 0l0 14.141731l-34.771652 0z" fill-rule="evenodd"/><path fill="#000000" d="m233.28365 57.633945l0 0.765625l-1.5 0q0.6875 0.640625 0.6875 2.015625q0 1.46875 -0.765625 2.171875q-0.75 0.703125 -1.828125 0.703125q-1.125 0 -1.859375 -0.71875q-0.71875 -0.734375 -0.71875 -2.171875q0 -1.46875 0.75 -2.171875q0.765625 -0.71875 1.828125 -0.71875q0.390625 0 0.875 0.125l2.53125 0zm-3.421875 0.65625q-0.6875 0 -1.15625 0.53125q-0.453125 0.53125 -0.453125 1.59375q0 1.046875 0.453125 1.578125q0.453125 0.53125 1.171875 0.53125q0.75 0 1.1875 -0.546875q0.453125 -0.5625 0.453125 -1.578125q0 -0.921875 -0.40625 -1.515625q-0.40625 -0.59375 -1.25 -0.59375z" fill-rule="nonzero"/><path fill="#000000" fill-opacity="0.0" d="m230.22835 66.49606l-21.102356 50.614174" fill-rule="evenodd"/><path stroke="#000000" stroke-width="1.0" stroke-linejoin="round" stroke-linecap="butt" d="m230.22835 66.49606l-18.793457 45.076218" fill-rule="evenodd"/><path stroke="#000000" stroke-width="1.0" stroke-linecap="butt" d="m209.91037 110.93667l-0.22181702 4.8242416l3.2708893 -3.553009z" fill-rule="evenodd"/><path fill="#000000" fill-opacity="0.0" d="m257.1496 110.01837l57.19687 0l0 14.141731l-57.19687 0z" fill-rule="evenodd"/><path fill="#000000" d="m276.2884 118.98549q0 0.484375 -0.203125 0.859375q-0.1875 0.359375 -0.546875 0.609375q-0.359375 0.234375 -0.859375 0.359375q-0.484375 0.109375 -1.078125 0.109375q-0.28125 0 -0.546875 -0.03125q-0.265625 -0.015625 -0.515625 -0.046875q-0.25 -0.03125 -0.46875 -0.0625q-0.21875 -0.046875 -0.390625 -0.09375l0 -0.890625q0.390625 0.140625 0.875 0.234375q0.484375 0.078125 1.109375 0.078125q0.4375 0 0.75 -0.0625q0.328125 -0.078125 0.515625 -0.21875q0.203125 -0.140625 0.296875 -0.328125q0.09375 -0.203125 0.09375 -0.46875q0 -0.265625 -0.15625 -0.453125q-0.15625 -0.203125 -0.40625 -0.359375q-0.25 -0.15625 -0.578125 -0.28125q-0.3125 -0.125 -0.640625 -0.25q-0.328125 -0.140625 -0.65625 -0.296875q-0.3125 -0.171875 -0.5625 -0.375q-0.25 -0.21875 -0.40625 -0.515625q-0.15625 -0.296875 -0.15625 -0.6875q0 -0.359375 0.140625 -0.6875q0.15625 -0.34375 0.453125 -0.609375q0.3125 -0.265625 0.796875 -0.421875q0.484375 -0.15625 1.140625 -0.15625q0.171875 0 0.375 0.015625q0.203125 0.015625 0.40625 0.046875q0.203125 0.015625 0.40625 0.0625q0.203125 0.03125 0.375 0.078125l0 0.828125q-0.40625 -0.109375 -0.8125 -0.171875q-0.390625 -0.0625 -0.765625 -0.0625q-0.796875 0 -1.171875 0.265625q-0.375 0.265625 -0.375 0.71875q0 0.265625 0.15625 0.46875q0.15625 0.203125 0.40625 0.359375q0.25 0.15625 0.5625 0.28125q0.328125 0.125 0.65625 0.265625q0.328125 0.125 0.640625 0.296875q0.328125 0.15625 0.578125 0.375q0.25 0.21875 0.40625 0.515625q0.15625 0.296875 0.15625 0.703125zm4.858856 1.84375l-0.015625 -0.703125q-0.4375 0.421875 -0.875 0.609375q-0.4375 0.1875 -0.921875 0.1875q-0.4375 0 -0.765625 -0.109375q-0.3125 -0.125 -0.515625 -0.3125q-0.203125 -0.203125 -0.3125 -0.46875q-0.09375 -0.28125 -0.09375 -0.59375q0 -0.796875 0.578125 -1.234375q0.59375 -0.4375 1.734375 -0.4375l1.09375 0l0 -0.46875q0 -0.453125 -0.296875 -0.734375q-0.296875 -0.28125 -0.90625 -0.28125q-0.4375 0 -0.875 0.109375q-0.421875 0.09375 -0.890625 0.265625l0 -0.8125q0.171875 -0.0625 0.375 -0.125q0.21875 -0.0625 0.453125 -0.109375q0.234375 -0.046875 0.484375 -0.0625q0.265625 -0.03125 0.515625 -0.03125q0.484375 0 0.859375 0.109375q0.375 0.09375 0.640625 0.3125q0.265625 0.203125 0.40625 0.53125q0.140625 0.328125 0.140625 0.765625l0 3.59375l-0.8125 0zm-0.09375 -2.375l-1.15625 0q-0.328125 0 -0.578125 0.0625q-0.25 0.0625 -0.40625 0.1875q-0.15625 0.125 -0.234375 0.3125q-0.0625 0.171875 -0.0625 0.390625q0 0.140625 0.046875 0.28125q0.046875 0.140625 0.140625 0.25q0.109375 0.109375 0.265625 0.171875q0.171875 0.0625 0.421875 0.0625q0.296875 0 0.703125 -0.1875q0.40625 -0.203125 0.859375 -0.609375l0 -0.921875zm4.374481 -2.09375l-1.546875 0l0 -0.75l2.46875 0l0 4.46875l1.546875 0l0 0.75l-4.1875 0l0 -0.75l1.71875 0l0 -3.71875zm2.34375 -2.890625l-1.65625 1.265625l-0.90625 0l1.25 -1.265625l1.3125 0zm-4.953125 2.140625l0 0zm6.421356 2.71875q0 -0.671875 0.1875 -1.1875q0.1875 -0.515625 0.515625 -0.875q0.34375 -0.359375 0.8125 -0.53125q0.46875 -0.1875 1.046875 -0.1875q0.25 0 0.484375 0.03125q0.25 0.03125 0.484375 0.09375l0 -2.203125l0.90625 0l0 7.359375l-0.8125 0l-0.03125 -0.984375q-0.375 0.546875 -0.828125 0.8125q-0.4375 0.265625 -0.953125 0.265625q-0.4375 0 -0.78125 -0.1875q-0.34375 -0.1875 -0.578125 -0.53125q-0.21875 -0.34375 -0.34375 -0.8125q-0.109375 -0.484375 -0.109375 -1.0625zm0.9375 -0.0625q0 0.953125 0.265625 1.421875q0.28125 0.453125 0.796875 0.453125q0.34375 0 0.71875 -0.296875q0.390625 -0.3125 0.8125 -0.921875l0 -2.421875q-0.234375 -0.09375 -0.5 -0.140625q-0.265625 -0.0625 -0.53125 -0.0625q-0.734375 0 -1.15625 0.484375q-0.40625 0.46875 -0.40625 1.484375zm8.546356 2.5625l-0.015625 -0.703125q-0.4375 0.421875 -0.875 0.609375q-0.4375 0.1875 -0.921875 0.1875q-0.4375 0 -0.765625 -0.109375q-0.3125 -0.125 -0.515625 -0.3125q-0.203125 -0.203125 -0.3125 -0.46875q-0.09375 -0.28125 -0.09375 -0.59375q0 -0.796875 0.578125 -1.234375q0.59375 -0.4375 1.734375 -0.4375l1.09375 0l0 -0.46875q0 -0.453125 -0.296875 -0.734375q-0.296875 -0.28125 -0.90625 -0.28125q-0.4375 0 -0.875 0.109375q-0.421875 0.09375 -0.890625 0.265625l0 -0.8125q0.171875 -0.0625 0.375 -0.125q0.21875 -0.0625 0.453125 -0.109375q0.234375 -0.046875 0.484375 -0.0625q0.265625 -0.03125 0.515625 -0.03125q0.484375 0 0.859375 0.109375q0.375 0.09375 0.640625 0.3125q0.265625 0.203125 0.40625 0.53125q0.140625 0.328125 0.140625 0.765625l0 3.59375l-0.8125 0zm-0.09375 -2.375l-1.15625 0q-0.328125 0 -0.578125 0.0625q-0.25 0.0625 -0.40625 0.1875q-0.15625 0.125 -0.234375 0.3125q-0.0625 0.171875 -0.0625 0.390625q0 0.140625 0.046875 0.28125q0.046875 0.140625 0.140625 0.25q0.109375 0.109375 0.265625 0.171875q0.171875 0.0625 0.421875 0.0625q0.296875 0 0.703125 -0.1875q0.40625 -0.203125 0.859375 -0.609375l0 -0.921875z" fill-rule="nonzero"/></g></svg>